<svg width="115" height="102" viewBox="0 0 115 102" fill="none" xmlns="http://www.w3.org/2000/svg">
<path d="M113.671 20.6861C108.871 13.2609 98.8431 11.0036 91.3889 15.832L53.0607 40.6628L39.859 30.702C45.2491 22.1583 43.3094 10.7968 35.125 4.6229C26.4822 -1.89546 14.159 -0.158741 7.59442 8.5033C1.03261 17.1659 2.71508 29.4731 11.3581 35.9941C17.2887 40.4682 24.9548 41.0512 31.3008 38.1782L47.4706 50.3766L30.4017 61.4341C24.2947 58.1356 16.6043 58.1921 10.3429 62.2467C1.21881 68.1585 -1.41136 80.3166 4.46277 89.4053C10.3398 98.4955 22.4973 101.072 31.6199 95.1623C40.2591 89.5653 43.0721 78.3667 38.3586 69.4766L52.2958 60.4463L88.6002 87.8346C95.661 93.1621 105.837 91.5963 111.199 84.5194L66.8168 51.0398L113.671 20.6861ZM22.8893 30.5237C17.2682 30.331 12.8875 25.621 13.105 20.004C13.3226 14.3871 18.0562 9.98955 23.677 10.1823C29.2993 10.3751 33.6788 15.085 33.4613 20.702C33.2437 26.3189 28.5116 30.7165 22.8893 30.5237ZM20.631 88.8358C15.0099 88.6431 10.6292 83.933 10.8467 78.3161C11.0643 72.6991 15.7977 68.3016 21.4187 68.4944C27.041 68.6871 31.4205 73.3971 31.203 79.0141C30.9854 84.6308 26.2533 89.0286 20.631 88.8358Z" fill="#99BAED"/>
</svg>
